<svg xmlns="http://www.w3.org/2000/svg" xmlns:xlink="http://www.w3.org/1999/xlink" viewBox="0 0 24.26 24.26"><defs><style>.cls-1{fill:url(#linear-gradient);}.cls-2{fill:#f9f9f9;}</style><linearGradient id="linear-gradient" x1="12.13" y1="14.65" x2="12.13" y2="38.73" gradientTransform="matrix(1, 0, 0, -1, 0, 38.73)" gradientUnits="userSpaceOnUse"><stop offset="0" stop-color="#111"/><stop offset="1" stop-color="#333"/></linearGradient></defs><g id="Layer_2" data-name="Layer 2"><g id="UK-US"><path class="cls-1" d="M13.39,0h5.1a11.54,11.54,0,0,1,1.59.14,5.09,5.09,0,0,1,1.44.48,4.72,4.72,0,0,1,1.23.89,4.84,4.84,0,0,1,.89,1.22,5.14,5.14,0,0,1,.47,1.45,10.15,10.15,0,0,1,.14,1.58c0,.25,0,.5,0,.75V17.74c0,.25,0,.5,0,.75a10.38,10.38,0,0,1-.14,1.59,5.07,5.07,0,0,1-.47,1.44,4.79,4.79,0,0,1-2.12,2.12,5.07,5.07,0,0,1-1.44.47,10.17,10.17,0,0,1-1.59.14H5.77a10.15,10.15,0,0,1-1.58-.14,5,5,0,0,1-1.45-.47,4.84,4.84,0,0,1-1.22-.89,4.72,4.72,0,0,1-.89-1.23,5.09,5.09,0,0,1-.48-1.44A11.82,11.82,0,0,1,0,18.49c0-.25,0-.5,0-.75V6.52c0-.25,0-.5,0-.75A11.54,11.54,0,0,1,.15,4.19,5.15,5.15,0,0,1,.63,2.74,4.89,4.89,0,0,1,2.74.63,5,5,0,0,1,4.19.15,11.54,11.54,0,0,1,5.77,0h7.62"/><path id="_tv" data-name="  tv" class="cls-2" d="M6.82,9.11a2,2,0,0,1,.48-1.4A2,2,0,0,1,8.64,7a2,2,0,0,1-.47,1.45A1.66,1.66,0,0,1,6.82,9.11Zm2.5,2.73a2.07,2.07,0,0,1,1-1.73,2.13,2.13,0,0,0-1.66-.9c-.75,0-1.38.43-1.74.43s-.9-.41-1.49-.4a2.24,2.24,0,0,0-1.88,1.14c-.8,1.38-.21,3.44.57,4.56.38.56.84,1.17,1.44,1.15s.79-.37,1.48-.37.89.37,1.49.36,1-.56,1.4-1.12a4.82,4.82,0,0,0,.62-1.28A2,2,0,0,1,9.32,11.84ZM19.8,9.67l-1.58,5.1h0l-1.57-5.1H15.29L17.53,16h1.34l2.24-6.35ZM13.39,8.15H12.13V9.67H11.2v1h.93v3.69c0,1.22.49,1.71,1.75,1.71A4,4,0,0,0,14.6,16V15l-.43,0c-.54,0-.78-.26-.78-.81V10.67h1.22v-1H13.39Z"/></g></g></svg>